<?xml version="1.0" encoding="UTF-8"?>
<svg width="43px" height="43px" viewBox="0 0 43 43" version="1.1" xmlns="http://www.w3.org/2000/svg" xmlns:xlink="http://www.w3.org/1999/xlink">
    <!-- Generator: Sketch 53.1 (72631) - https://sketchapp.com -->
    <title>ICON/04_GLOBAL_CONTROL/Aircon/wind_strength_turbo</title>
    <desc>Created with Sketch.</desc>
    <g id="ICON/04_GLOBAL_CONTROL/Aircon/wind_strength_turbo" stroke="none" stroke-width="1" fill="none" fill-rule="evenodd" stroke-linejoin="round">
        <path d="M14.735837,20.9594262 C11.5779674,20.9594262 9.01853261,18.2819672 9.01853261,14.9795082 C9.01853261,11.6770492 11.5779674,9 14.735837,9 L14.735837,20.9594262 Z" id="Stroke-11" stroke="#284B71" stroke-width="2"></path>
        <path d="M14.735837,20.9594262 C14.735837,24.1766393 12.1084348,26.7852459 8.86771739,26.7852459 C5.62659783,26.7852459 3,24.1766393 3,20.9594262 L14.735837,20.9594262 Z" id="Stroke-13" stroke="#284B71" stroke-width="2"></path>
        <path d="M14.735837,20.9594262 C17.8933043,20.9594262 20.452337,23.6364754 20.452337,26.9389344 C20.452337,30.2413934 17.8933043,32.9188525 14.735837,32.9188525 L14.735837,20.9594262 Z" id="Stroke-15" stroke="#284B71" stroke-width="2"></path>
        <path d="M14.735837,20.9594262 C14.735837,17.7413934 17.3624348,15.1331967 20.6035543,15.1331967 C23.8442717,15.1331967 26.4716739,17.7413934 26.4716739,20.9594262 L14.735837,20.9594262 Z" id="Stroke-17" stroke="#284B71" stroke-width="2"></path>
        <path d="M24.9561217,33.9937295 L24.9561217,26.9068443" id="Stroke-19" stroke="#284B71" stroke-width="2"></path>
        <path d="M29.8729391,33.9568852 L29.8729391,22.4404918" id="Stroke-21" stroke="#284B71" stroke-width="2"></path>
        <path d="M34.7681598,33.9937295 L34.7681598,17.9744672" id="Stroke-23" stroke="#284B71" stroke-width="2"></path>
        <path d="M39.6635413,33.9128689 L39.6635413,13.5083607" id="Stroke-25" stroke="#284B71" stroke-width="2"></path>
    </g>
</svg>