<?xml version="1.0" encoding="UTF-8"?>
<svg width="43px" height="43px" viewBox="0 0 43 43" version="1.1" xmlns="http://www.w3.org/2000/svg" xmlns:xlink="http://www.w3.org/1999/xlink">
    <!-- Generator: Sketch 53.1 (72631) - https://sketchapp.com -->
    <title>ICON/04_GLOBAL_CONTROL/Aircon/wind_strength_high</title>
    <desc>Created with Sketch.</desc>
    <g id="ICON/04_GLOBAL_CONTROL/Aircon/wind_strength_high" stroke="none" stroke-width="1" fill="none" fill-rule="evenodd" stroke-linejoin="round">
        <path d="M17.6724,20.9594262 C14.5316,20.9594262 11.986,18.2819672 11.986,14.9795082 C11.986,11.6770492 14.5316,9 17.6724,9 L17.6724,20.9594262 Z" id="Stroke-39" stroke="#284B71" stroke-width="2"></path>
        <path d="M17.6724,20.9594262 C17.6724,24.1766393 15.0592,26.7852459 11.836,26.7852459 C8.6124,26.7852459 6,24.1766393 6,20.9594262 L17.6724,20.9594262 Z" id="Stroke-41" stroke="#284B71" stroke-width="2"></path>
        <path d="M17.6724,20.9594262 C20.8128,20.9594262 23.358,23.6364754 23.358,26.9389344 C23.358,30.2413934 20.8128,32.9188525 17.6724,32.9188525 L17.6724,20.9594262 Z" id="Stroke-43" stroke="#284B71" stroke-width="2"></path>
        <path d="M17.6724,20.9594262 C17.6724,17.7413934 20.2848,15.1331967 23.5084,15.1331967 C26.7316,15.1331967 29.3448,17.7413934 29.3448,20.9594262 L17.6724,20.9594262 Z" id="Stroke-45" stroke="#284B71" stroke-width="2"></path>
        <path d="M27.83744,33.9937295 L27.83744,26.9068443" id="Stroke-47" stroke="#284B71" stroke-width="2"></path>
        <path d="M32.72788,33.9568852 L32.72788,22.4404918" id="Stroke-49" stroke="#284B71" stroke-width="2"></path>
        <path d="M37.59644,33.9937295 L37.59644,17.9744672" id="Stroke-51" stroke="#284B71" stroke-width="2"></path>
    </g>
</svg>