<?xml version="1.0" encoding="UTF-8"?>
<svg width="43px" height="43px" viewBox="0 0 43 43" version="1.1" xmlns="http://www.w3.org/2000/svg" xmlns:xlink="http://www.w3.org/1999/xlink">
    <!-- Generator: Sketch 53.1 (72631) - https://sketchapp.com -->
    <title>ICON/04_GLOBAL_CONTROL/Aircon/wind_strength_medium</title>
    <desc>Created with Sketch.</desc>
    <g id="ICON/04_GLOBAL_CONTROL/Aircon/wind_strength_medium" stroke="none" stroke-width="1" fill="none" fill-rule="evenodd" stroke-linejoin="round">
        <path d="M19.5865735,20.9594262 C16.4692647,20.9594262 13.9419853,18.2819672 13.9419853,14.9795082 C13.9419853,11.6770492 16.4692647,9 19.5865735,9 L19.5865735,20.9594262 Z" id="Stroke-27" stroke="#284B71" stroke-width="2"></path>
        <path d="M19.5865735,20.9594262 C19.5865735,24.1766393 16.9929853,26.7852459 13.7934853,26.7852459 C10.5935882,26.7852459 8,24.1766393 8,20.9594262 L19.5865735,20.9594262 Z" id="Stroke-29" stroke="#284B71" stroke-width="2"></path>
        <path d="M19.5865735,20.9594262 C22.7042794,20.9594262 25.2307647,23.6364754 25.2307647,26.9389344 C25.2307647,30.2413934 22.7042794,32.9188525 19.5865735,32.9188525 L19.5865735,20.9594262 Z" id="Stroke-31" stroke="#284B71" stroke-width="2"></path>
        <path d="M19.5865735,20.9594262 C19.5865735,17.7413934 22.1801618,15.1331967 25.3796618,15.1331967 C28.5791618,15.1331967 31.1731471,17.7413934 31.1731471,20.9594262 L19.5865735,20.9594262 Z" id="Stroke-33" stroke="#284B71" stroke-width="2"></path>
        <path d="M29.6770691,33.9937295 L29.6770691,26.9068443" id="Stroke-35" stroke="#284B71" stroke-width="2"></path>
        <path d="M34.53155,33.9568852 L34.53155,22.4404918" id="Stroke-37" stroke="#284B71" stroke-width="2"></path>
    </g>
</svg>