<?xml version="1.0" encoding="UTF-8"?>
<svg width="43px" height="43px" viewBox="0 0 43 43" version="1.1" xmlns="http://www.w3.org/2000/svg" xmlns:xlink="http://www.w3.org/1999/xlink">
    <!-- Generator: Sketch 53.1 (72631) - https://sketchapp.com -->
    <title>ICON/04_GLOBAL_CONTROL/Aircon/wind_strength_low</title>
    <desc>Created with Sketch.</desc>
    <g id="ICON/04_GLOBAL_CONTROL/Aircon/wind_strength_low" stroke="none" stroke-width="1" fill="none" fill-rule="evenodd" stroke-linejoin="round">
        <path d="M20.8702373,20.9594262 C17.6762034,20.9594262 15.0874576,18.2819672 15.0874576,14.9795082 C15.0874576,11.6770492 17.6762034,9 20.8702373,9 L20.8702373,20.9594262 Z" id="Stroke-1" stroke="#284B71" stroke-width="2"></path>
        <path d="M20.8702373,20.9594262 C20.8702373,24.1766393 18.2127458,26.7852459 14.9349153,26.7852459 C11.656678,26.7852459 9,24.1766393 9,20.9594262 L20.8702373,20.9594262 Z" id="Stroke-3" stroke="#284B71" stroke-width="2"></path>
        <path d="M20.8702373,20.9594262 C24.0638644,20.9594262 26.6522034,23.6368852 26.6522034,26.9393443 C26.6522034,30.2413934 24.0638644,32.9188525 20.8702373,32.9188525 L20.8702373,20.9594262 Z" id="Stroke-5" stroke="#284B71" stroke-width="2"></path>
        <path d="M20.8702373,20.9594262 C20.8702373,17.7413934 23.5269153,15.1331967 26.8051525,15.1331967 C30.0829831,15.1331967 32.7404746,17.7413934 32.7404746,20.9594262 L20.8702373,20.9594262 Z" id="Stroke-7" stroke="#284B71" stroke-width="2"></path>
        <path d="M31.2075661,33.9937295 L31.2075661,26.9068443" id="Stroke-9" stroke="#284B71" stroke-width="2"></path>
    </g>
</svg>