<?xml version="1.0" encoding="UTF-8"?>
<svg width="43px" height="43px" viewBox="0 0 43 43" version="1.1" xmlns="http://www.w3.org/2000/svg" xmlns:xlink="http://www.w3.org/1999/xlink">
    <!-- Generator: Sketch 53.1 (72631) - https://sketchapp.com -->
    <title>ICON/04_GLOBAL_CONTROL/Aircon/vent_uppermiddle</title>
    <desc>Created with Sketch.</desc>
    <g id="ICON/04_GLOBAL_CONTROL/Aircon/vent_uppermiddle" stroke="none" stroke-width="1" fill="none" fill-rule="evenodd">
        <path d="M23.8759075,13.0814328 C23.8759075,14.6090539 22.664401,15.8494676 21.1693505,15.8494676 C19.6768061,15.8494676 18.4652996,14.6090539 18.4652996,13.0814328 C18.4652996,11.5512473 19.6768061,10.3119326 21.1693505,10.3119326 C22.664401,10.3119326 23.8759075,11.5512473 23.8759075,13.0814328" id="Fill-1" fill="#284B71"></path>
        <path d="M23.8759075,13.0814328 C23.8759075,14.6090539 22.664401,15.8494676 21.1693505,15.8494676 C19.6768061,15.8494676 18.4652996,14.6090539 18.4652996,13.0814328 C18.4652996,11.5512473 19.6768061,10.3119326 21.1693505,10.3119326 C22.664401,10.3119326 23.8759075,11.5512473 23.8759075,13.0814328 Z" id="Stroke-3" stroke="#284B71" stroke-width="1.099008"></path>
        <path d="M23.8759075,21.412353 C23.8759075,22.9418058 22.664401,24.1807542 21.1714986,24.1807542 C19.6768061,24.1807542 18.4652996,22.9418058 18.4652996,21.412353 C18.4652996,19.8839993 19.6768061,18.6443182 21.1714986,18.6443182 C22.664401,18.6443182 23.8759075,19.8839993 23.8759075,21.412353" id="Fill-5" fill="#284B71"></path>
        <path d="M23.8759075,21.412353 C23.8759075,22.9418058 22.664401,24.1807542 21.1714986,24.1807542 C19.6768061,24.1807542 18.4652996,22.9418058 18.4652996,21.412353 C18.4652996,19.8839993 19.6768061,18.6443182 21.1714986,18.6443182 C22.664401,18.6443182 23.8759075,19.8839993 23.8759075,21.412353 Z" id="Stroke-7" stroke="#284B71" stroke-width="1.099008"></path>
        <path d="M23.8759075,29.7448852 C23.8759075,31.2739716 22.664401,32.5136527 21.1714986,32.5136527 C19.6768061,32.5136527 18.4652996,31.2739716 18.4652996,29.7448852 C18.4652996,28.2165314 19.6768061,26.9772167 21.1714986,26.9772167 C22.664401,26.9772167 23.8759075,28.2165314 23.8759075,29.7448852 Z" id="Stroke-9" stroke="#284B71" stroke-width="1.3" stroke-linejoin="round"></path>
        <path d="M13.8608233,11.6625768 C13.8608233,7.53287112 17.1344684,4.18309473 21.1724652,4.18309473 C25.207598,4.18309473 28.4808851,7.53287112 28.4808851,11.6640422 L28.4808851,31.3600972 C28.4808851,35.489803 25.207598,38.839213 21.1724652,38.839213 C17.1344684,38.839213 13.8608233,35.489803 13.8608233,31.3600972 L13.8608233,11.6625768 Z" id="Stroke-11" stroke="#284B71" stroke-width="2" stroke-linejoin="round"></path>
    </g>
</svg>