<?xml version="1.0" encoding="UTF-8"?>
<svg width="29px" height="29px" viewBox="0 0 29 29" version="1.1" xmlns="http://www.w3.org/2000/svg" xmlns:xlink="http://www.w3.org/1999/xlink">
    <!-- Generator: Sketch 53.1 (72631) - https://sketchapp.com -->
    <title>07_CS CARD/homecard wizard Copy</title>
    <desc>Created with Sketch.</desc>
    <defs>
        <polygon id="path-1" points="0 0 29 0 29 29 0 29"></polygon>
        <path d="M8.45584115,0.170871976 C8.27237946,0.173122984 8.08994271,0.228988911 7.94009859,0.338469758 L7.94009859,0.338469758 L0.460191592,5.79634577 C0.210724702,5.97785887 0.0424319196,6.30711996 0.041406994,6.61530343 L0.041406994,6.61530343 L0,17.9655 C-0.00163988095,18.4167248 0.364668527,18.7852762 0.816455729,18.7871179 L0.816455729,18.7871179 L9.83580097,18.8266129 L9.84133557,17.5987903 L1.2315506,17.5611371 L1.24999926,12.4425494 L4.47769494,9.22585887 L6.95412016,11.4916008 L9.60724256,8.60028327 L8.70059338,7.77088911 L6.87827567,9.75648286 L4.44141257,7.52675706 L1.25635379,10.701497 L1.27070275,6.72539819 L8.46547545,1.4756381 L15.6196611,6.7806502 L15.6104368,9.13049798 L16.8405525,9.135 L16.8499818,6.68017339 C16.8512117,6.37239919 16.6857887,6.04211492 16.4379617,5.85814617 L16.4379617,5.85814617 L8.99946168,0.342153226 C8.84859263,0.230216734 8.66369606,0.173122984 8.47797954,0.170871976 L8.47797954,0.170871976 L8.45584115,0.170871976 Z" id="path-3"></path>
        <linearGradient x1="78.9243705%" y1="22.8423384%" x2="10.1442028%" y2="87.6844382%" id="linearGradient-5">
            <stop stop-color="#2ABCCF" offset="0%"></stop>
            <stop stop-color="#3182C1" offset="100%"></stop>
        </linearGradient>
        <path d="M2.44444754,0.363640121 C1.51053534,0.723801411 0.772793899,1.42509274 0.367333333,2.33900202 L0.367333333,2.33900202 C-0.469620908,4.22534677 0.38680692,6.4397248 2.27615476,7.27525806 L2.27615476,7.27525806 C2.76217448,7.49012702 3.27689211,7.5981754 3.79283966,7.5981754 L3.79283966,7.5981754 C4.24893155,7.5981754 4.70563839,7.51386492 5.14389658,7.34503931 L5.14389658,7.34503931 C5.37225,7.25704536 5.58830432,7.14797379 5.79123958,7.02109879 L5.79123958,7.02109879 L7.43624516,8.98336391 L8.37958668,8.19530645 L6.70895796,6.2025504 C6.91209821,5.95064214 7.08633557,5.67335887 7.2208058,5.36967742 L7.2208058,5.36967742 C7.62647135,4.45597278 7.65127455,3.43933569 7.29070573,2.50700907 L7.29070573,2.50700907 C6.9301369,1.57447782 6.2276529,0.838193548 5.31218936,0.433626008 L5.31218936,0.433626008 C4.82637463,0.218552419 4.31124702,0.110913306 3.79529948,0.110708669 L3.79529948,0.110708669 C3.33941257,0.110708669 2.88270573,0.195019153 2.44444754,0.363640121 M2.7742686,6.15261895 C2.15931324,5.88086089 1.68723251,5.38604839 1.4449401,4.75965423 L1.4449401,4.75965423 C1.20264769,4.13326008 1.21945647,3.45018145 1.4918817,2.83627016 L1.4918817,2.83627016 C1.76430692,2.22235887 2.25996094,1.750875 2.88742039,1.50919859 L2.88742039,1.50919859 C3.18177902,1.39582964 3.48843676,1.3393498 3.79488951,1.3393498 L3.79488951,1.3393498 C4.14151935,1.3393498 4.48753423,1.41158669 4.81407552,1.55606048 L4.81407552,1.55606048 C5.42882589,1.82781855 5.90111161,2.32263105 6.14340402,2.9490252 L6.14340402,2.9490252 C6.38549144,3.57562399 6.36888765,4.25849798 6.09666741,4.87240927 L6.09666741,4.87240927 L6.09646243,4.87240927 C5.8240372,5.48632056 5.32838318,5.95780444 4.70092374,6.19968548 L4.70092374,6.19968548 C4.4065651,6.31305444 4.09970238,6.36953427 3.79345461,6.36953427 L3.79345461,6.36953427 C3.44682478,6.36953427 3.1008099,6.29709274 2.7742686,6.15261895" id="path-6"></path>
        <linearGradient x1="112.571982%" y1="0.184163476%" x2="-37.8102924%" y2="136.521864%" id="linearGradient-8">
            <stop stop-color="#2ABCCF" offset="0%"></stop>
            <stop stop-color="#3182C1" offset="100%"></stop>
        </linearGradient>
    </defs>
    <g id="07_CS-CARD/homecard-wizard-Copy" stroke="none" stroke-width="1" fill="none" fill-rule="evenodd">
        <g id="Group">
            <g id="Group-3">
                <mask id="mask-2" fill="white">
                    <use xlink:href="#path-1"></use>
                </mask>
                <g id="Clip-2"></g>
                <path d="M28.734141,10.1768686 C28.3773588,7.48396341 27.4242377,5.04368405 25.7434607,3.25631063 L25.7430523,3.25631063 C23.9560779,1.57595088 21.5157858,0.622630598 18.8228665,0.266054502 C16.251053,-0.0747963018 14.5000224,0.00913999563 14.5000224,0.00913999563 C14.5000224,0.00913999563 12.7485833,-0.0747963018 10.1767698,0.266054502 C7.48364632,0.622630598 5.04376261,1.57595088 3.25658404,3.25631063 L3.25637982,3.25631063 C1.57601126,5.04368405 0.622685975,7.48396341 0.265903784,10.1768686 C-0.0749488082,12.7484643 0.00919215516,14.4998942 0.00919215516,14.4998942 C0.00919215516,14.4998942 -0.0749488082,16.2511199 0.265903784,18.8229199 C0.622685975,21.5156208 1.57601126,23.9561044 3.25637982,25.7434778 L3.25658404,25.7434778 C5.04376261,27.4240418 7.48364632,28.3771578 10.1767698,28.7341424 C12.7485833,29.074789 14.5000224,28.9908527 14.5000224,28.9908527 C14.5000224,28.9908527 16.251053,29.074789 18.8228665,28.7341424 C21.5157858,28.3771578 23.9560779,27.4240418 25.7430523,25.7434778 L25.7434607,25.7434778 C27.4242377,23.9561044 28.3773588,21.5156208 28.734141,18.8229199 C29.0747894,16.2511199 28.9908526,14.4998942 28.9908526,14.4998942 C28.9908526,14.4998942 29.0747894,12.7484643 28.734141,10.1768686" id="Fill-1" fill="#FFFFFF" mask="url(#mask-2)"></path>
            </g>
            <g id="Group-7" transform="translate(6.343750, 4.531250)">
                <g id="Group-3" transform="translate(0.000000, 0.033724)">
                    <mask id="mask-4" fill="white">
                        <use xlink:href="#path-3"></use>
                    </mask>
                    <g id="Clip-2"></g>
                    <path d="M8.45584115,0.170871976 C8.27237946,0.173122984 8.08994271,0.228988911 7.94009859,0.338469758 L7.94009859,0.338469758 L0.460191592,5.79634577 C0.210724702,5.97785887 0.0424319196,6.30711996 0.041406994,6.61530343 L0.041406994,6.61530343 L0,17.9655 C-0.00163988095,18.4167248 0.364668527,18.7852762 0.816455729,18.7871179 L0.816455729,18.7871179 L9.83580097,18.8266129 L9.84133557,17.5987903 L1.2315506,17.5611371 L1.24999926,12.4425494 L4.47769494,9.22585887 L6.95412016,11.4916008 L9.60724256,8.60028327 L8.70059338,7.77088911 L6.87827567,9.75648286 L4.44141257,7.52675706 L1.25635379,10.701497 L1.27070275,6.72539819 L8.46547545,1.4756381 L15.6196611,6.7806502 L15.6104368,9.13049798 L16.8405525,9.135 L16.8499818,6.68017339 C16.8512117,6.37239919 16.6857887,6.04211492 16.4379617,5.85814617 L16.4379617,5.85814617 L8.99946168,0.342153226 C8.84859263,0.230216734 8.66369606,0.173122984 8.47797954,0.170871976 L8.47797954,0.170871976 L8.45584115,0.170871976 Z" id="Fill-1" fill="url(#linearGradient-5)" mask="url(#mask-4)"></path>
                </g>
                <g id="Group-6" transform="translate(8.814360, 9.651668)">
                    <mask id="mask-7" fill="white">
                        <use xlink:href="#path-6"></use>
                    </mask>
                    <g id="Clip-5"></g>
                    <path d="M2.44444754,0.363640121 C1.51053534,0.723801411 0.772793899,1.42509274 0.367333333,2.33900202 L0.367333333,2.33900202 C-0.469620908,4.22534677 0.38680692,6.4397248 2.27615476,7.27525806 L2.27615476,7.27525806 C2.76217448,7.49012702 3.27689211,7.5981754 3.79283966,7.5981754 L3.79283966,7.5981754 C4.24893155,7.5981754 4.70563839,7.51386492 5.14389658,7.34503931 L5.14389658,7.34503931 C5.37225,7.25704536 5.58830432,7.14797379 5.79123958,7.02109879 L5.79123958,7.02109879 L7.43624516,8.98336391 L8.37958668,8.19530645 L6.70895796,6.2025504 C6.91209821,5.95064214 7.08633557,5.67335887 7.2208058,5.36967742 L7.2208058,5.36967742 C7.62647135,4.45597278 7.65127455,3.43933569 7.29070573,2.50700907 L7.29070573,2.50700907 C6.9301369,1.57447782 6.2276529,0.838193548 5.31218936,0.433626008 L5.31218936,0.433626008 C4.82637463,0.218552419 4.31124702,0.110913306 3.79529948,0.110708669 L3.79529948,0.110708669 C3.33941257,0.110708669 2.88270573,0.195019153 2.44444754,0.363640121 M2.7742686,6.15261895 C2.15931324,5.88086089 1.68723251,5.38604839 1.4449401,4.75965423 L1.4449401,4.75965423 C1.20264769,4.13326008 1.21945647,3.45018145 1.4918817,2.83627016 L1.4918817,2.83627016 C1.76430692,2.22235887 2.25996094,1.750875 2.88742039,1.50919859 L2.88742039,1.50919859 C3.18177902,1.39582964 3.48843676,1.3393498 3.79488951,1.3393498 L3.79488951,1.3393498 C4.14151935,1.3393498 4.48753423,1.41158669 4.81407552,1.55606048 L4.81407552,1.55606048 C5.42882589,1.82781855 5.90111161,2.32263105 6.14340402,2.9490252 L6.14340402,2.9490252 C6.38549144,3.57562399 6.36888765,4.25849798 6.09666741,4.87240927 L6.09666741,4.87240927 L6.09646243,4.87240927 C5.8240372,5.48632056 5.32838318,5.95780444 4.70092374,6.19968548 L4.70092374,6.19968548 C4.4065651,6.31305444 4.09970238,6.36953427 3.79345461,6.36953427 L3.79345461,6.36953427 C3.44682478,6.36953427 3.1008099,6.29709274 2.7742686,6.15261895" id="Fill-4" fill="url(#linearGradient-8)" mask="url(#mask-7)"></path>
                </g>
            </g>
        </g>
    </g>
</svg>