<?xml version="1.0" encoding="UTF-8"?>
<svg width="48px" height="48px" viewBox="0 0 48 48" version="1.1" xmlns="http://www.w3.org/2000/svg" xmlns:xlink="http://www.w3.org/1999/xlink">
    <!-- Generator: Sketch 53.1 (72631) - https://sketchapp.com -->
    <title>03_HERO CARD/Washer_mode/icon</title>
    <desc>Created with Sketch.</desc>
    <g id="03_HERO-CARD/Washer_mode/icon" stroke="none" stroke-width="1" fill="none" fill-rule="evenodd">
        <circle id="Oval-Copy-3" fill="#A7DBD9" cx="24" cy="24" r="24"></circle>
        <g id="ICON/03_HERO-CARD/Washer_cotton" transform="translate(6.000000, 6.000000)" stroke="#FFFFFF" stroke-linecap="round" stroke-linejoin="round">
            <g id="cotton" transform="translate(3.000000, 5.000000)">
                <path d="M14.9395353,24.028521 C14.9395353,24.5422528 15.0004952,25.0428894 15.1083471,25.5277448 C15.5769339,25.6382139 16.060928,25.6989887 16.5593248,25.6989887 C20.1375321,25.6989887 23.0317837,22.7032273 23.0317837,19.0026796 C23.0317837,18.4889478 22.9711588,17.9903258 22.8656514,17.5034558 C22.3973996,17.3970159 21.9124006,17.3318761 21.4170184,17.3318761 C17.8364665,17.3318761 14.9395353,20.3286448 14.9395353,24.028521 Z" id="Stroke-1" stroke-width="2.6"></path>
                <path d="M12.6972658,25.6989887 C13.199474,25.6989887 13.6832679,25.6382139 14.1469735,25.5277448 C14.2547809,25.0425536 14.3170547,24.5422528 14.3170547,24.028521 C14.3170547,20.3286448 11.4193133,17.3318761 7.8459345,17.3318761 C7.3443959,17.3318761 6.8616064,17.3970159 6.39689641,17.5034558 C6.28942385,17.9903258 6.22480639,18.4889478 6.22480639,19.0026796 C6.22480639,22.7032273 9.1242218,25.6989887 12.6972658,25.6989887 Z" id="Stroke-3" stroke-width="2.6"></path>
                <path d="M22.689166,17.929527 C26.3768571,17.5696865 29.25659,14.5746669 29.25659,10.9343827 C29.25659,7.05216465 25.9812127,3.90412422 21.9431229,3.90412422 C21.6889988,3.90412422 21.4379365,3.91829878 21.1909564,3.94020491 C20.0030028,1.60881231 17.5141515,1.95399252e-14 14.6272744,1.95399252e-14 C11.7420984,1.95399252e-14 9.25596863,1.60881231 8.0629121,3.94020491 C7.8183134,3.91829878 7.56725103,3.90412422 7.31346713,3.90412422 C3.27367635,3.90412422 -4.61852778e-14,7.05216465 -4.61852778e-14,10.9343827 C-4.61852778e-14,14.5746669 2.87701142,17.5674315 6.56436234,17.929527" id="Stroke-5" stroke-width="2.6"></path>
            </g>
        </g>
    </g>
</svg>