<?xml version="1.0" encoding="UTF-8"?>
<svg width="48px" height="48px" viewBox="0 0 48 48" version="1.1" xmlns="http://www.w3.org/2000/svg" xmlns:xlink="http://www.w3.org/1999/xlink">
    <!-- Generator: Sketch 53.1 (72631) - https://sketchapp.com -->
    <title>03_HERO CARD/Oven_mode/icon</title>
    <desc>Created with Sketch.</desc>
    <g id="03_HERO-CARD/Oven_mode/icon" stroke="none" stroke-width="1" fill="none" fill-rule="evenodd">
        <circle id="mode-bg" fill="#E29471" cx="24" cy="24" r="24"></circle>
        <g id="icons/convection-2" transform="translate(12.000000, 12.000000)">
            <g id="icons/convection">
                <path d="M24.88563,24.8822516 C24.88563,24.8840615 24.7498902,24.8855697 24.583986,24.8855697 L0.452466,24.8855697 C0.2865618,24.8855697 0.150822,24.7501315 0.150822,24.5839257 L0.150822,0.452405671 C0.150822,0.286501471 0.2865618,0.150761671 0.452466,0.150761671 L24.583986,0.150761671 C24.7498902,0.150761671 24.88563,0.286501471 24.88563,0.452405671 L24.88563,24.5772895 L24.88563,24.8822516 Z" id="Stroke-1" stroke="#FFFFFF" stroke-width="1.50822"></path>
                <path d="M7.12573621,12.477866 L11.7493354,12.477866 C10.5020375,12.1928125 9.56784604,11.0791428 9.56784604,9.7497977 C9.56784604,8.20507877 10.8244949,6.94692165 12.3722303,6.94692165 C12.5127964,6.94692165 12.6219915,7.05822828 12.6219915,7.19517466 L12.6219915,11.8269183 C12.9106648,10.5684595 14.022223,9.63487133 15.352473,9.63487133 C16.8983985,9.63487133 18.156254,10.8981564 18.156254,12.4449868 C18.156254,12.5852513 18.0416293,12.6923349 17.9064928,12.6923349 L13.2804804,12.6923349 C14.527175,12.9849296 15.4610649,14.0940746 15.4610649,15.4288493 C15.4610649,16.9708534 14.2056225,18.2259941 12.655474,18.2259941 C12.5200359,18.2259941 12.4057128,18.1149891 12.4057128,17.9795509 L12.4057128,13.3544435 C12.1212625,14.6014398 11.0124192,15.5437756 9.67915267,15.5437756 C8.13443375,15.5437756 6.880198,14.2762676 6.880198,12.7291355 C6.880198,12.5943006 6.98909148,12.477866 7.12573621,12.477866" id="Fill-3" fill="#FFFFFF"></path>
                <path d="M6.27974545,18.8253607 C4.68314376,17.228759 3.69525966,15.0228365 3.69525966,12.5864579 C3.69525966,7.7137007 7.64528784,3.76367252 12.5183467,3.76367252 C17.3911038,3.76367252 21.3414337,7.7137007 21.3414337,12.5864579 C21.3414337,15.0228365 20.3538512,17.228759 18.7572495,18.8253607" id="Stroke-5" stroke="#FFFFFF" stroke-width="1.50822"></path>
            </g>
        </g>
    </g>
</svg>