<?xml version="1.0" encoding="UTF-8"?>
<svg width="43px" height="43px" viewBox="0 0 43 43" version="1.1" xmlns="http://www.w3.org/2000/svg" xmlns:xlink="http://www.w3.org/1999/xlink">
    <!-- Generator: Sketch 53.1 (72631) - https://sketchapp.com -->
    <title>ICON/04_GLOBAL_CONTROL/Oven/safety_sensor</title>
    <desc>Created with Sketch.</desc>
    <g id="ICON/04_GLOBAL_CONTROL/Oven/safety_sensor" stroke="none" stroke-width="1" fill="none" fill-rule="evenodd" stroke-linejoin="round">
        <path d="M23.7382579,30.0579158 C25.5430087,29.2264954 26.7929287,27.4253663 26.7929287,25.3405603 C26.7929287,22.457469 21.4786148,13.876832 21.4786148,13.876832 L21.4699994,13.876832 C21.4699994,13.876832 16.155341,22.457469 16.1518948,25.3405603 C16.155341,27.4253663 17.405261,29.2264954 19.2096671,30.0579158" id="Stroke-1" stroke="#C5C3C2" stroke-width="2"></path>
        <path d="M20.056525,26.9117386 C19.6202419,26.530685 19.3490296,25.9775318 19.3490296,25.3611514 C19.3490296,24.2081854 21.4746173,19.6253989 21.4746173,19.6253989 C21.4746173,19.6253989 23.6015834,24.2081854 23.6015834,25.3611514 C23.6015834,25.9795605 23.3248573,26.5344042 22.8902973,26.9154578" id="Stroke-3" stroke="#C5C3C2" stroke-width="2"></path>
        <path d="M21.1405127,37.0919553 C21.3231588,37.141658 21.6219404,37.141658 21.8049311,37.0919553 C21.8049311,37.0919553 33.8788757,33.8014376 33.8788757,23.6580414 L33.8788757,9.45728664 C26.4279465,10.3840549 21.7670234,7.60408815 21.7670234,7.60408815 C21.6053988,7.50738777 21.340045,7.50738777 21.1780757,7.60408815 C21.1780757,7.60408815 16.5181865,10.3840549 9.06656805,9.45728664 L9.06656805,23.6580414 C9.06656805,33.8014376 21.1405127,37.0919553 21.1405127,37.0919553 Z" id="Stroke-5" stroke="#C5C3C2" stroke-width="2"></path>
    </g>
</svg>