<?xml version="1.0" encoding="UTF-8"?>
<svg width="43px" height="43px" viewBox="0 0 43 43" version="1.1" xmlns="http://www.w3.org/2000/svg" xmlns:xlink="http://www.w3.org/1999/xlink">
    <!-- Generator: Sketch 53.1 (72631) - https://sketchapp.com -->
    <title>ICON/04_GLOBAL_CONTROL/Oven/preheat_off</title>
    <desc>Created with Sketch.</desc>
    <g id="ICON/04_GLOBAL_CONTROL/Oven/preheat_off" stroke="none" stroke-width="1" fill="none" fill-rule="evenodd">
        <path d="M15.2258192,14.1063282 C14.2348094,15.0746844 13.8331309,16.1718617 13.8331309,17.3146844 C13.8331309,18.2286044 14.0150358,19.0806497 14.7632803,20.5172927 C14.7632803,20.5172927 15.6886962,22.8042904 15.6886962,23.719901 C15.6886962,24.8684715 15.2890463,25.9582104 14.296346,26.9265666" id="Stroke-1" stroke="#C5C3C2" stroke-width="2" stroke-linejoin="round"></path>
        <path d="M21.9547454,14.1063282 C20.9610306,15.0746844 20.5610427,16.1718617 20.5610427,17.3146844 C20.5610427,18.2286044 20.7412571,19.0806497 21.4854442,20.5172927 C22.2357174,21.9559644 22.4115363,22.8042904 22.4115363,23.719901 C22.4115363,24.8684715 22.0159438,25.9582104 21.0242578,26.9265666" id="Stroke-3" stroke="#C5C3C2" stroke-width="2" stroke-linejoin="round"></path>
        <path d="M28.5879179,14.2001208 C27.6016417,15.1559668 27.2050349,16.2392815 27.2050349,17.3672272 C27.2050349,18.2696513 27.3832205,19.1105389 28.122336,20.5285857 C28.4945986,21.2386234 28.7238394,21.8029343 28.8607752,22.3030038" id="Stroke-5" stroke="#C5C3C2" stroke-width="2" stroke-linejoin="round"></path>
        <path d="M28.0477144,35.7601123 C27.8292933,35.9213923 27.6507695,35.830778 27.6507695,35.5596112 L27.6507695,26.0647161 C27.6507695,25.7935493 27.8292933,25.7032731 28.0477144,25.8642149 L34.354202,30.5196957 C34.5726231,30.6809757 34.5726231,30.9443659 34.354202,31.1053078 L28.0477144,35.7601123 Z" id="Stroke-7" stroke="#C5C3C2" stroke-width="2"></path>
        <path d="M24.0428649,34.725283 L7.85535698,34.725283 C7.65992755,34.725283 7.5,34.5653555 7.5,34.369926 L7.5,7.35535698 C7.5,7.15992755 7.65992755,7 7.85535698,7 L34.869926,7 C35.0656936,7 35.225283,7.15992755 35.225283,7.35535698 L35.225283,26.7454732" id="Stroke-9" stroke="#C5C3C2" stroke-width="2"></path>
    </g>
</svg>