<?xml version="1.0" encoding="UTF-8"?>
<svg width="41px" height="41px" viewBox="0 0 41 41" version="1.1" xmlns="http://www.w3.org/2000/svg" xmlns:xlink="http://www.w3.org/1999/xlink">
    <!-- Generator: Sketch 53.1 (72631) - https://sketchapp.com -->
    <title>ICON/05_SERVICE CARD/good_sleep</title>
    <desc>Created with Sketch.</desc>
    <g id="ICON/05_SERVICE-CARD/good_sleep" stroke="none" stroke-width="1" fill="none" fill-rule="evenodd" stroke-linejoin="round">
        <path d="M13.3487638,23.7383112 C11.7463548,22.3687022 10.7306019,20.333099 10.7306019,18.0598536 C10.7306019,13.9372449 14.0728649,10.5946094 18.195846,10.5946094 C20.5264534,10.5946094 22.6063817,11.6621371 23.9759907,13.3349448" id="Stroke-1" stroke="#284B71" stroke-width="2"></path>
        <path d="M18.3332166,4.00014899 L18.3328442,8.18086451" id="Stroke-3" stroke="#284B71" stroke-width="2"></path>
        <path d="M8.18060378,18.3333656 L3.99988826,18.3333656" id="Stroke-5" stroke="#284B71" stroke-width="2"></path>
        <path d="M11.1531432,11.1547448 L8.19751437,8.19837107" id="Stroke-8" stroke="#284B71" stroke-width="2"></path>
        <path d="M26.8211419,7.81441869 L26.7954408,7.80398925 C26.7660148,7.79206989 26.7499982,7.80436173 26.7600552,7.83118029 L26.7686222,7.85352909 C27.3306945,9.38144205 27.6379905,11.0285486 27.6379905,12.7490337 C27.6379905,15.8704161 26.6244724,18.7556462 24.9095745,21.1063675 L18.1792334,21.1063675 C17.9747419,21.1063675 17.8905614,21.2512622 17.9929934,21.4289352 L19.7283777,24.4333588 C19.8308097,24.6110318 19.9984257,24.9011937 20.1008577,25.0784942 L20.1995649,25.249835 C18.1267137,26.3892513 15.7417243,27.0403464 13.2025281,27.0403464 C11.2674945,27.0403464 9.42297357,26.6622792 7.73712909,25.9780334 L7.71738765,25.9705838 C7.69578381,25.9616443 7.68684429,25.9780334 7.69801869,26.0074593 L7.70844813,26.0342779 C9.76863501,31.4382177 15.039972,35.2810939 21.2175528,35.2810939 C29.1901147,35.2810939 35.6537601,28.881515 35.6537601,20.9890363 C35.6537601,15.061762 32.0109057,9.98150733 26.8211419,7.81441869 Z" id="Stroke-10" stroke="#284B71" stroke-width="2"></path>
        <path d="M30.4455585,19.6381258 C28.9507963,20.501162 27.0403464,19.9886295 26.1773102,18.4946122" id="Stroke-12" stroke="#284B71" stroke-width="2"></path>
        <path d="M23.8332936,29.352814 C20.667586,31.1802008 16.6202184,30.096284 14.7928315,26.9313215" id="Stroke-14" stroke="#284B71" stroke-width="2"></path>
    </g>
</svg>