<?xml version="1.0" encoding="UTF-8"?>
<svg width="41px" height="41px" viewBox="0 0 41 41" version="1.1" xmlns="http://www.w3.org/2000/svg" xmlns:xlink="http://www.w3.org/1999/xlink">
    <!-- Generator: Sketch 53.1 (72631) - https://sketchapp.com -->
    <title>ICON/05_SERVICE CARD/ai_purifying</title>
    <desc>Created with Sketch.</desc>
    <g id="ICON/05_SERVICE-CARD/ai_purifying" stroke="none" stroke-width="1" fill="none" fill-rule="evenodd" stroke-linejoin="round">
        <g id="Group" transform="translate(6.500000, 6.000000)" stroke="#284B71" stroke-width="1.85">
            <path d="M5.33549453,14.1648998 C6.20350349,14.3333299 7.09981709,14.4210394 8.01674765,14.4210394 C12.4008219,14.4210394 16.3145499,12.4068672 18.882235,9.25247232 L18.8818856,9.25212288 L13.5298625,4.4408921e-15 L5.33549453,14.1645504 L5.33549453,14.1648998 Z" id="Stroke-1"></path>
            <path d="M3.24245376,17.9305701 L1.59872116e-14,23.3870757 L10.9961779,23.3870757 L10.9961779,29.3638975 L15.7254989,29.3638975 L15.7254989,23.3870757 L27.0592358,23.3870757 L20.8849805,12.7144792 L20.6735693,12.5135512 C17.722199,16.2515109 13.1497766,18.650766 8.01685248,18.650766 C6.3545664,18.650766 4.75098624,18.3991692 3.24210432,17.9316184 L3.24245376,17.9305701 Z" id="Stroke-3"></path>
        </g>
    </g>
</svg>