<?xml version="1.0" encoding="UTF-8"?>
<svg width="43px" height="43px" viewBox="0 0 43 43" version="1.1" xmlns="http://www.w3.org/2000/svg" xmlns:xlink="http://www.w3.org/1999/xlink">
    <!-- Generator: Sketch 53.1 (72631) - https://sketchapp.com -->
    <title>ICON/04_GLOBAL_CONTROL/Washer/bubble_soak_off</title>
    <desc>Created with Sketch.</desc>
    <g id="ICON/04_GLOBAL_CONTROL/Washer/bubble_soak_off" stroke="none" stroke-width="1" fill="none" fill-rule="evenodd">
        <g id="Group-15" transform="translate(6.000000, 10.000000)">
            <path d="M0.162976383,0.187760473 L4.94751037,22.9515278 C4.98912136,23.1479025 5.18732108,23.3088713 5.38771085,23.3088713 L25.9450006,23.3088713 L26.3184045,23.3088713 C26.3227846,23.3088713 26.3603805,23.1479025 26.4019915,22.9515278 L31.1887155,0.187760473" id="Stroke-1" stroke="#C5C3C2" stroke-width="1.728"></path>
            <path d="M1.44193035,6.27314895 L29.4570778,6.27314895" id="Stroke-3" stroke="#C5C3C2" stroke-width="1.728" stroke-linejoin="round"></path>
            <path d="M19.1833605,2.33485112 C22.561881,2.33485112 25.2968912,5.06402114 25.2968912,8.43049634 C25.2968912,11.7966065 22.561881,14.5301567 19.1833605,14.5301567 C15.8146953,14.5301567 13.0796851,11.7966065 13.0796851,8.43049634 C13.0796851,5.06402114 15.8146953,2.33485112 19.1833605,2.33485112" id="Fill-5" fill="#F5F5F5"></path>
            <path d="M19.1833605,2.33485112 C22.561881,2.33485112 25.2968912,5.06402114 25.2968912,8.43049634 C25.2968912,11.7966065 22.561881,14.5301567 19.1833605,14.5301567 C15.8146953,14.5301567 13.0796851,11.7966065 13.0796851,8.43049634 C13.0796851,5.06402114 15.8146953,2.33485112 19.1833605,2.33485112 Z" id="Stroke-7" stroke="#C5C3C2" stroke-width="1.728" stroke-linejoin="round"></path>
            <path d="M16.3477905,8.42826979 C16.3477905,6.84924217 17.6180207,5.56295153 19.185003,5.56295153" id="Stroke-9" stroke="#C5C3C2" stroke-width="1.728" stroke-linecap="round" stroke-linejoin="round"></path>
            <path d="M10.1729384,14.1208359 C11.6869944,14.1208359 12.9134236,15.3472651 12.9134236,16.8584011 C12.9134236,18.3699021 11.6869944,19.5959663 10.1729384,19.5959663 C8.66216736,19.5959663 7.4382932,18.3699021 7.4382932,16.8584011 C7.4382932,15.3472651 8.66216736,14.1208359 10.1729384,14.1208359" id="Fill-11" fill="#F5F5F5"></path>
            <path d="M10.1729384,14.1208359 C11.6869944,14.1208359 12.9134236,15.3472651 12.9134236,16.8584011 C12.9134236,18.3699021 11.6869944,19.5959663 10.1729384,19.5959663 C8.66216736,19.5959663 7.4382932,18.3699021 7.4382932,16.8584011 C7.4382932,15.3472651 8.66216736,14.1208359 10.1729384,14.1208359 Z" id="Stroke-13" stroke="#C5C3C2" stroke-width="1.728" stroke-linecap="round" stroke-linejoin="round"></path>
        </g>
    </g>
</svg>