<?xml version="1.0" encoding="UTF-8"?>
<svg width="43px" height="43px" viewBox="0 0 43 43" version="1.1" xmlns="http://www.w3.org/2000/svg" xmlns:xlink="http://www.w3.org/1999/xlink">
    <!-- Generator: Sketch 53.1 (72631) - https://sketchapp.com -->
    <title>ICON/04_GLOBAL_CONTROL/Washer/rinse</title>
    <desc>Created with Sketch.</desc>
    <g id="ICON/04_GLOBAL_CONTROL/Washer/rinse" stroke="none" stroke-width="1" fill="none" fill-rule="evenodd" stroke-linejoin="round">
        <path d="M6.16359695,10.1896771 L10.9713665,32.9399236 C11.0135495,33.137267 11.212727,33.2986631 11.4141053,33.2986631 L32.0728052,33.2986631 L32.4480511,33.2986631 C32.4524528,33.2986631 32.4902342,33.137267 32.5324173,32.9399236 L37.3423876,10.1896771" id="Stroke-1" stroke="#3A6088" stroke-width="2"></path>
        <path d="M9.43729661,25.0458206 L13.1292322,25.0458206" id="Stroke-3" stroke="#3A6088" stroke-width="2"></path>
        <path d="M16.8680461,25.0458206 L20.1022037,25.0458206" id="Stroke-5" stroke="#3A6088" stroke-width="2"></path>
        <path d="M23.4494853,25.0458206 L26.8424714,25.0458206" id="Stroke-7" stroke="#3A6088" stroke-width="2"></path>
        <path d="M30.3726441,25.0458206 L34.0708155,25.0458206" id="Stroke-9" stroke="#3A6088" stroke-width="2"></path>
        <path d="M13.9518388,29.1713249 L16.4164305,29.1713249" id="Stroke-11" stroke="#3A6088" stroke-width="2"></path>
        <path d="M20.1023504,29.1713249 L23.4494853,29.1713249" id="Stroke-13" stroke="#3A6088" stroke-width="2"></path>
        <path d="M26.8424714,29.1713249 L30.1437551,29.1713249" id="Stroke-15" stroke="#3A6088" stroke-width="2"></path>
        <path d="M21.7511949,18.4332026 C18.671464,20.609849 16.6180656,20.9073314 14.5646671,20.9073314 C12.1301537,20.9073314 9.79321168,19.9477582 7.7082676,17.5836723" id="Stroke-17" stroke="#3A6088" stroke-width="2"></path>
        <path d="M35.4904042,18.9524579 C33.4839573,16.8289988 31.255224,15.9589272 28.9358887,15.9589272 C26.8839575,15.9589272 24.830559,16.2564095 21.7511949,18.4348899" id="Stroke-19" stroke="#3A6088" stroke-width="2"></path>
        <path d="M13.5850295,29.1713249 L16.8679727,29.1713249" id="Stroke-21" stroke="#3A6088" stroke-width="2"></path>
    </g>
</svg>