<?xml version="1.0" encoding="UTF-8"?>
<svg width="43px" height="43px" viewBox="0 0 43 43" version="1.1" xmlns="http://www.w3.org/2000/svg" xmlns:xlink="http://www.w3.org/1999/xlink">
    <!-- Generator: Sketch 53.1 (72631) - https://sketchapp.com -->
    <title>ICON/04_GLOBAL_CONTROL/Washer/bubble_soak</title>
    <desc>Created with Sketch.</desc>
    <g id="ICON/04_GLOBAL_CONTROL/Washer/bubble_soak" stroke="none" stroke-width="1" fill="none" fill-rule="evenodd">
        <path d="M6.16297638,10.1877605 L10.9475104,32.9515278 C10.9891214,33.1479025 11.1873211,33.3088713 11.3877109,33.3088713 L31.9450006,33.3088713 L32.3184045,33.3088713 C32.3227846,33.3088713 32.3603805,33.1479025 32.4019915,32.9515278 L37.1887155,10.1877605" id="Stroke-1" stroke="#3A6088" stroke-width="1.728"></path>
        <path d="M7.44193035,16.2731489 L35.4570778,16.2731489" id="Stroke-3" stroke="#3A6088" stroke-width="2" stroke-linejoin="round"></path>
        <path d="M25.1833605,12.3348511 C28.561881,12.3348511 31.2968912,15.0640211 31.2968912,18.4304963 C31.2968912,21.7966065 28.561881,24.5301567 25.1833605,24.5301567 C21.8146953,24.5301567 19.0796851,21.7966065 19.0796851,18.4304963 C19.0796851,15.0640211 21.8146953,12.3348511 25.1833605,12.3348511" id="Fill-5" fill="#F5F5F5"></path>
        <path d="M25.1833605,12.3348511 C28.561881,12.3348511 31.2968912,15.0640211 31.2968912,18.4304963 C31.2968912,21.7966065 28.561881,24.5301567 25.1833605,24.5301567 C21.8146953,24.5301567 19.0796851,21.7966065 19.0796851,18.4304963 C19.0796851,15.0640211 21.8146953,12.3348511 25.1833605,12.3348511 Z" id="Stroke-7" stroke="#3A6088" stroke-width="2" stroke-linejoin="round"></path>
        <path d="M22.3477905,18.4282698 C22.3477905,16.8492422 23.6180207,15.5629515 25.185003,15.5629515" id="Stroke-9" stroke="#3A6088" stroke-width="2" stroke-linecap="round" stroke-linejoin="round"></path>
        <path d="M16.1729384,24.1208359 C17.6869944,24.1208359 18.9134236,25.3472651 18.9134236,26.8584011 C18.9134236,28.3699021 17.6869944,29.5959663 16.1729384,29.5959663 C14.6621674,29.5959663 13.4382932,28.3699021 13.4382932,26.8584011 C13.4382932,25.3472651 14.6621674,24.1208359 16.1729384,24.1208359" id="Fill-11" fill="#F5F5F5"></path>
        <path d="M16.1729384,24.1208359 C17.6869944,24.1208359 18.9134236,25.3472651 18.9134236,26.8584011 C18.9134236,28.3699021 17.6869944,29.5959663 16.1729384,29.5959663 C14.6621674,29.5959663 13.4382932,28.3699021 13.4382932,26.8584011 C13.4382932,25.3472651 14.6621674,24.1208359 16.1729384,24.1208359 Z" id="Stroke-13" stroke="#3A6088" stroke-width="2" stroke-linejoin="round"></path>
    </g>
</svg>