<?xml version="1.0" encoding="UTF-8"?>
<svg width="43px" height="43px" viewBox="0 0 43 43" version="1.1" xmlns="http://www.w3.org/2000/svg" xmlns:xlink="http://www.w3.org/1999/xlink">
    <!-- Generator: Sketch 53.1 (72631) - https://sketchapp.com -->
    <title>ICON/04_GLOBAL_CONTROL/Washer/spin</title>
    <desc>Created with Sketch.</desc>
    <g id="ICON/04_GLOBAL_CONTROL/Washer/spin" stroke="none" stroke-width="1" fill="none" fill-rule="evenodd" stroke-linejoin="round">
        <path d="M24.1730087,16.3104692 C24.4306897,16.2742924 24.7320876,16.2659717 24.9940337,16.2862307 C25.2630882,16.306128 25.5762151,16.3665434 25.8381612,16.4432384 C26.1157458,16.5235511 26.420698,16.6523409 26.6744694,16.7890895 C26.9421022,16.9337971 27.2275061,17.1309611 27.4567534,17.3241457 C27.6984404,17.5332482 27.9500792,17.7987866 28.1459168,18.0480453 C28.3474411,18.3096043 28.5489655,18.635558 28.6907789,18.9332939 C28.8464537,19.2429681 28.9818696,19.6170371 29.0678817,19.9549293 C29.1563818,20.3051216 29.2157373,20.7113881 29.2338638,21.073157 C29.2516349,21.4475878 29.2256891,21.8780928 29.1677553,22.2478206 C29.1059119,22.6302104 28.9935985,23.0607154 28.8585381,23.4268255 C28.7167247,23.8045123 28.5091582,24.21512 28.2955495,24.5609711 C28.0758987,24.9108016 27.7801875,25.2892119 27.495139,25.5909272 C27.1972952,25.9006014 26.8201924,26.2222139 26.4711679,26.4638756 C26.1054386,26.7171138 25.6604501,26.9627549 25.2510039,27.1353187 C24.8337383,27.3165649 24.3308161,27.4732108 23.881918,27.562206 C23.4202247,27.6584365 22.8856699,27.710893 22.4122476,27.710893 C21.929229,27.710893 21.372638,27.6544571 20.8992158,27.5538853 C20.4122875,27.4533135 19.865293,27.280388 19.4060876,27.0835857 C18.9351533,26.8820804 18.4180142,26.5923035 17.9947065,26.3028884 C17.561447,26.0015349 17.1022416,25.606845 16.7329581,25.2244553 C16.3579878,24.8304889 15.9705777,24.3399303 15.6826858,23.8812073 C15.3837758,23.4065665 15.0962393,22.8353334 14.8961367,22.3122155 C14.6889256,21.7771593 14.5172568,21.1415313 14.4212928,20.5742777 C14.3235517,19.9954474 14.2777023,19.3193013 14.2958288,18.7321503 C14.3135999,18.1287198 14.4056542,17.4446148 14.54107,16.8578256 C14.6811063,16.2580128 14.9089319,15.5862079 15.1637695,15.0272749 C15.4239385,14.4517006 15.7868245,13.8240315 16.1582406,13.3132138 C16.5314337,12.7904577 17.0226271,12.2394837 17.4939168,11.8049992 C17.97658,11.3542351 18.5775987,10.8994916 19.1384548,10.5579818 C19.707841,10.2077894 20.4041128,9.87387674 21.0328545,9.64849471 C21.6758131,9.41515376 22.4381935,9.22233093 23.1113629,9.12175917 C23.7998155,9.01684619 24.6023586,8.97705161 25.3011184,9.01286673 C26.0094746,9.04904362 26.8201924,9.17385389 27.5090004,9.35075889 C28.2116699,9.53200512 28.995731,9.81744079 29.6507739,10.1350739 C30.3154132,10.45741 31.044384,10.9038328 31.6350955,11.3498939 C32.2364696,11.8089787 32.8730306,12.4001091 33.3741758,12.9713422 C33.8866944,13.5465547 34.4038335,14.2708161 34.7930207,14.9386415 C35.186473,15.6180435 35.5596662,16.4432384 35.8155701,17.1870353 C36.0728957,17.9474736 36.2843718,18.8486399 36.3924201,19.6412756 C36.495848,20.4498291 36.5281914,21.3911519 36.4741672,22.2076643 C36.4222756,23.0364769 36.2666007,23.981779 36.052992,24.7823737 C35.8329858,25.5988861 35.4900035,26.5080114 35.1146777,27.2684496 C34.7354424,28.0368468 34.2143936,28.8775977 33.6929894,29.5573615 C33.1623442,30.2490637 32.4756687,30.9773045 31.8188487,31.5525171 C31.1542094,32.1317091 30.3218108,32.7232013 29.5569425,33.1616652 C28.7764356,33.6080881 27.8345671,34.0306341 26.984042,34.3120904 C26.1175229,34.5978878 25.095329,34.8312287 24.1911352,34.9401212 C23.2766342,35.056249 22.2125004,35.0765081 21.2862705,35.0081337 C20.3522212,34.93578 19.2863104,34.7465748 18.3838937,34.4893571 C17.4658384,34.2317777 16.445777,33.8298524 15.5931194,33.3910267 C14.7326425,32.9485833 13.7946837,32.3451528 13.03799,31.7417222 C12.2653024,31.1263533 11.4531629,30.3337176 10.8180236,29.5816001 C10.1715109,28.8171823 9.5203776,27.8675389 9.03344933,26.9906111 C8.54438854,26.1017449 8.08340609,25.0236735 7.77809851,24.0541328 C7.46212827,23.0726538 7.21510992,21.9099285 7.10137485,20.8843136 C6.98550725,19.8463986 6.96738072,18.6391757 7.05516998,17.597643 C7.14295924,16.5434484 7.36651973,15.3409286 7.65796585,14.3229108" id="Stroke-1" stroke="#3A6088" stroke-width="2"></path>
    </g>
</svg>